<?xml version="1.0" encoding="UTF-8" standalone="no"?>
<!-- Created with Inkscape (http://www.inkscape.org/) -->

<svg
   width="60mm"
   height="60mm"
   viewBox="0 0 60 60"
   version="1.1"
   id="svg1783"
   inkscape:version="1.2.2 (732a01da63, 2022-12-09)"
   sodipodi:docname="Grafik Stilisiert.svg"
   xmlns:inkscape="http://www.inkscape.org/namespaces/inkscape"
   xmlns:sodipodi="http://sodipodi.sourceforge.net/DTD/sodipodi-0.dtd"
   xmlns:xlink="http://www.w3.org/1999/xlink"
   xmlns="http://www.w3.org/2000/svg"
   xmlns:svg="http://www.w3.org/2000/svg">
  <sodipodi:namedview
     id="namedview1785"
     pagecolor="#ffffff"
     bordercolor="#000000"
     borderopacity="0.25"
     inkscape:showpageshadow="2"
     inkscape:pageopacity="0.0"
     inkscape:pagecheckerboard="0"
     inkscape:deskcolor="#d1d1d1"
     inkscape:document-units="mm"
     showgrid="false"
     inkscape:zoom="1.5233586"
     inkscape:cx="49.889764"
     inkscape:cy="84.024865"
     inkscape:window-width="1920"
     inkscape:window-height="1009"
     inkscape:window-x="-8"
     inkscape:window-y="-8"
     inkscape:window-maximized="1"
     inkscape:current-layer="layer1" />
  <defs
     id="defs1780">
    <pattern
       inkscape:collect="always"
       xlink:href="#pattern10611"
       id="pattern10618"
       patternTransform="matrix(0,0.51829021,-0.51829041,0,63.588338,44.957566)" />
    <pattern
       patternUnits="userSpaceOnUse"
       width="1.8198684"
       height="1.8198684"
       patternTransform="translate(1483.8499,911.50049)"
       id="pattern10611">
      <path
         id="path10579-9"
         style="fill:#333333;fill-opacity:1;stroke:none;stroke-width:0.579172;stroke-linecap:round;stroke-linejoin:bevel;stroke-dasharray:none;stroke-opacity:1"
         d="m 1810.9783,463.12011 c -0.7823,-3e-5 -1.4159,0.63351 -1.4158,1.4158 -10e-5,0.78229 0.6335,1.41583 1.4158,1.4158 0.7823,8e-5 1.4174,-0.63347 1.4173,-1.4158 10e-5,-0.78233 -0.635,-1.41588 -1.4173,-1.4158 z m 4.1547,-3.2e-4 c -0.7654,0.0194 -1.3807,0.64576 -1.3806,1.4158 -10e-5,0.7823 0.6351,1.41737 1.4174,1.41734 0.7823,9e-5 1.4159,-0.63498 1.4158,-1.41734 10e-5,-0.78232 -0.6335,-1.41589 -1.4158,-1.4158 -0.012,0 -0.025,-3e-4 -0.037,0 z m -4.1907,4.19112 c -0.7654,0.0194 -1.3806,0.64576 -1.3805,1.4158 -10e-5,0.78229 0.6335,1.41736 1.4158,1.41733 0.7823,9e-5 1.4175,-0.63498 1.4173,-1.41733 2e-4,-0.78233 -0.635,-1.41589 -1.4173,-1.4158 -0.012,0 -0.023,-3.1e-4 -0.035,0 z m 4.1907,-4.7e-4 c -0.7654,0.0194 -1.3807,0.64576 -1.3806,1.4158 -10e-5,0.78229 0.6351,1.41736 1.4174,1.41733 0.7823,9e-5 1.4159,-0.63498 1.4158,-1.41733 10e-5,-0.78233 -0.6335,-1.41589 -1.4158,-1.4158 -0.012,0 -0.025,-3.1e-4 -0.037,0 z"
         transform="matrix(0.43425324,0,0,0.43425324,-786.42318,-201.72623)"
         clip-path="url(#clipPath10541-6-2)"
         sodipodi:nodetypes="ssssscsssscssscssssssss" />
    </pattern>
    <clipPath
       clipPathUnits="userSpaceOnUse"
       id="clipPath10541-6-2">
      <rect
         style="fill:none;fill-opacity:1;stroke:#ff0000;stroke-width:0.864998;stroke-linecap:round;stroke-linejoin:bevel;stroke-dasharray:none;stroke-opacity:1"
         id="rect10543-8-6"
         width="4.1907997"
         height="4.1907997"
         x="1810.9783"
         y="464.53592"
         rx="0"
         ry="0" />
    </clipPath>
  </defs>
  <g
     inkscape:label="Ebene 1"
     inkscape:groupmode="layer"
     id="layer1"
     transform="translate(0.52550819)">
    <path
       id="rect7319-0"
       style="fill:url(#pattern10618);fill-opacity:1;stroke:none;stroke-width:0.0882169;stroke-linecap:round;stroke-linejoin:round;stroke-dasharray:none;stroke-opacity:1"
       d="m -0.17273602,41.458525 v 2.111338 l 0.7326111,0.732611 H 3.9899854 l 0.7326111,0.732611 v 10.125276 1.955586 l 0.7326178,0.732611 H 53.52157 l -0.0093,-0.0093 0.714006,-0.713999 V 55.160335 45.016454 l 0.714,-0.714006 H 58.3983 l 0.714006,-0.714 0.0093,0.0093 v -2.139283 h -7.739288 v 2.843949 10.857887 H 7.5668994 V 44.302414 41.458465 H 4.7225965 Z"
       inkscape:export-filename="Energiefluss EFH.png"
       inkscape:export-xdpi="289.06839"
       inkscape:export-ydpi="289.06839" />
    <path
       style="fill:none;stroke:#333333;stroke-width:0.705731;stroke-linecap:round;stroke-linejoin:round;stroke-dasharray:none"
       d="M -0.17264266,41.458418 H 7.5667527"
       id="path2123-4"
       sodipodi:nodetypes="cc" />
    <path
       style="fill:none;stroke:#333333;stroke-width:0.705731;stroke-linecap:round;stroke-linejoin:round;stroke-dasharray:none"
       d="m 51.382231,41.458418 h 7.739395"
       id="path2123-3-5"
       sodipodi:nodetypes="cc" />
    <path
       id="rect2907-8"
       style="fill:#7aafd8;fill-opacity:0.801252;stroke:#00589c;stroke-width:0.352867;stroke-linecap:round;stroke-linejoin:round;stroke-dasharray:none;stroke-opacity:1"
       d="M 3.4984683,33.788847 H 11.63505 l 1.883615,10.509379 -1.883615,10.50938 H 3.4984683 l 1.8836142,-10.50938 z"
       sodipodi:nodetypes="ccccccc" />
    <path
       id="rect2907-0-1-1-1-26"
       style="fill:#e5c3c3;fill-opacity:0.784038;stroke:#aa0000;stroke-width:0.352867;stroke-linecap:round;stroke-linejoin:round;stroke-dasharray:none"
       d="m 47.31394,49.758595 h 8.136582 l 1.883608,2.524502 -1.883608,2.524509 H 47.31394 l 1.883608,-2.524509 z"
       sodipodi:nodetypes="ccccccc" />
    <path
       id="rect2907-0-1-1-3"
       style="fill:#e5c3c3;fill-opacity:0.784038;stroke:#aa0000;stroke-width:0.352867;stroke-linecap:round;stroke-linejoin:round;stroke-dasharray:none"
       d="m 47.31394,42.124599 h 8.136582 l 1.883608,2.524502 -1.883608,2.524509 H 47.31394 l 1.883608,-2.524509 z"
       sodipodi:nodetypes="ccccccc" />
    <path
       id="rect2907-0-5-5"
       style="fill:#e5c3c3;fill-opacity:0.784038;stroke:#aa0000;stroke-width:0.352867;stroke-linecap:round;stroke-linejoin:round;stroke-dasharray:none"
       d="m 39.958895,16.277952 5.753435,-5.753436 3.117005,0.453181 0.453181,3.117012 -5.753429,5.753428 -0.453187,-3.117005 z"
       sodipodi:nodetypes="ccccccc" />
    <path
       id="rect2907-0-5-4-9"
       style="fill:#e5c3c3;fill-opacity:0.784038;stroke:#aa0000;stroke-width:0.352867;stroke-linecap:round;stroke-linejoin:round;stroke-dasharray:none"
       d="M 33.047875,10.287617 38.80131,4.5341815 41.918315,4.9873622 42.371496,8.1043803 36.618067,13.857802 36.16488,10.740797 Z"
       sodipodi:nodetypes="ccccccc" />
    <path
       id="rect2907-0-5-8-6"
       style="fill:#7aafd8;fill-opacity:0.801252;stroke:#00589c;stroke-width:0.352867;stroke-linecap:round;stroke-linejoin:round;stroke-dasharray:none;stroke-opacity:1"
       d="m 15.153676,8.387265 5.753435,5.753435 -0.45318,3.116998 -3.117012,0.453181 -5.753428,-5.753422 3.117004,-0.453187 z"
       sodipodi:nodetypes="ccccccc" />
    <path
       id="path7155-8"
       style="fill:#7aafd8;fill-opacity:0.801252;stroke:#00589c;stroke-width:0.352867;stroke-linecap:round;stroke-linejoin:round;stroke-dasharray:none;stroke-opacity:1"
       d="m 3.4984616,27.475498 h 8.1365824 l 1.883607,2.524495 -1.883607,2.524509 H 3.4984616 l 1.8836076,-2.524509 z"
       sodipodi:nodetypes="ccccccc" />
    <path
       id="rect2907-0-9-2-5"
       style="fill:#7aafd8;fill-opacity:0.801252;stroke:#00589c;stroke-width:0.352867;stroke-linecap:round;stroke-linejoin:round;stroke-dasharray:none;stroke-opacity:1"
       d="M 3.4984683,21.162148 H 11.63505 l 1.883608,2.524502 -1.883608,2.524509 H 3.4984683 L 5.3820759,23.68665 Z"
       sodipodi:nodetypes="ccccccc" />
    <path
       id="rect2907-0-9-8-5"
       style="fill:#e5c3c3;fill-opacity:0.784038;stroke:#aa0000;stroke-width:0.352867;stroke-linecap:round;stroke-linejoin:round;stroke-dasharray:none"
       d="m 47.313853,21.387225 h 8.136582 l 1.883608,9.076198 -1.883608,9.076199 h -8.136582 l 1.883608,-9.076199 z"
       sodipodi:nodetypes="ccccccc" />
    <path
       style="fill:none;stroke:#333333;stroke-width:0.705731;stroke-linecap:round;stroke-linejoin:round;stroke-dasharray:none"
       d="M 51.382231,55.160475 H 7.5667527 V 20.809279 L 29.474495,1.8200781 51.382231,20.809279 Z"
       id="path2272-3-9-1"
       sodipodi:nodetypes="ccccc" />
  </g>
</svg>
